<?xml version="1.0" encoding="utf-8"?>
<!-- Generator: Adobe Illustrator 26.0.0, SVG Export Plug-In . SVG Version: 6.00 Build 0)  -->
<svg version="1.1" id="Capa_1" xmlns="http://www.w3.org/2000/svg" xmlns:xlink="http://www.w3.org/1999/xlink" x="0px" y="0px"
	 viewBox="0 0 907.1 510.2" style="enable-background:new 0 0 907.1 510.2;" xml:space="preserve">
<style type="text/css">
	.st0{fill:#B91818;}
	.st1{fill:#020203;}
	.st2{fill:#B51917;}
</style>
<g id="Capa_1_00000047757810298770706470000016981699959906122687_">
	<path class="st0" d="M420,101.9c-7.7,4.6-21.3,26.8-29.7,22.7c-5-4.7-1.8-12.5-0.2-18c5.6-15.1,19.6-24.3,29.1-36.5
		c8.5-10,6-27.6-6.2-33.4c-3.9-1.2-8,1.6-6.2,6c2.7,6.3,6.8,12.2,8.1,19c0.8,18.1-19.7,5.9-23.1-4.1c-3.1-8.8-13.1-2.1-11.1,5.1
		c4.2,10.2,9.8,21.4,2.3,31.4c-18.4,26.8-31.4,26.7-18.9-8.1c-9.9,9.4-27.2,27.3-39.3,11.1c-21.4,42.1-17.8-33.7-20.6-46.1
		c-0.2,0-0.6,0-0.8-0.1c-9.2,28.9-10.4,60.2-20.9,88.5c-19.1,18.9-11.8-78.3-16-86.2c-4.4,13.1-5.8,27.1-8.7,40.5
		c-2.4,5.6-3.5,54.6-13.9,42.2c-7-26-1.5-53.7-0.2-80.2c0.1-1.5-0.1-3.7,2.3-3.5c3.7,25.9-4.5,54.3,0.1,80.8c0.5,0,1,0,1.5,0.1
		c5-21.2,6.8-42.8,10.5-64.1c1.1-10.4,11.2-36.9,13.5-10.4c1.3,26.5-2.1,54.9,7.3,79.9c6-5.8,18.7-112.4,28.7-91.3
		c3.4,19.9,1.7,39.7,6.5,59.4c5.3-4.6,7.7-19.2,15.6-9.6c6.5,5.7,17.2,0.6,22.5-4.8c4.6-4.4,8.5-10.5,15.6-10.4
		c2.2,9.4-5.7,17.5-5.6,27.1c0.4,0.2,0.7,0.5,1,0.6c8.2-4.1,13.8-12.1,18.1-19.9c4.7-8.3-0.6-16.6-3.6-24.4
		c-4.4-8.8,8-21.9,15.4-13.1c2.3,5.3,17.9,24.4,18.1,9.1c-2.8-8.9-17.7-28.5,0.7-29c16.6,3.4,20.8,27.2,11,39.2
		C411.2,87,390,99.4,391.4,121.2c0.4,0.1,0.7,0.4,1.1,0.5c10-5.7,16-16.6,25.5-22.7c14.3-7-1.8,27.3-1.1,33.2c-1.9,8,3.1,10.2,8,2.9
		c18.7-28.4,13.3-63.5,15.1-95.5c0.2-10.5,18.7-21.4,19.6-5.3c0.7,23.5-3.7,46.9,0.7,70.4c5.6,18.7-3.9,29.7-10.8,46.4
		c-4.8,10.8-19.7,8.3-29.5,11.5c-14.1,1.1-25.8,1.5-26.7-16c-3.7-15.7-20.2-8-29-1.3c-12,6.3-14.5-11.1-20.6-17.4
		c-6.2-8.2-23.6,1.7-15.5,9.9c3.5,2.7,7.6,4.4,11.2,6.8c10,7-4.6,13.1-8.7,18.5c-3.4,3.3-8,15.1,1,12.6c15.7-4.5,31.4-26.1,47-10
		c6.5,6.3,13.8,12.2,23.6,11c6.4,0,13.4-1,19.5,1.2c6,2.8,6.8,9.7,1.2,13.3c-19,13.7-35.5-4.1-48.2,5.6
		c-14.3,16.1-30.6,12.8-19.1-10c-12.3-0.2-23.9,6-34.5,12c-15.7,12,13.1,22.7,23.5,21.6c21.5,0.7,40.4-12.7,62-12.5
		c13.2-1,23.5-6.8,29.4-19.1c2.8-7.6,17.9-33.1,23.3-15.4c0.1,15.8-1.3,31.8-1.6,47.6c1.3,25.6-18.6,26.5-36.8,16.1
		c-15-7.9-35.2-4.5-44.1,10.6c-4.2,8.6-19.1,30.3-25.1,11.8c-0.7-7-0.5-14.7-4.6-20.8c-8-19-64.1,16.2-40.3,23
		c19.3,0.4,42.4,9.1,29,32c-6.5,8.3-16.9,5.3-25.8,3.7c-14.1-0.1-6.5,20.8,14.7,16.9c33.2-3.3,23-31.7,48.1-42.7
		c17.8-6.3,27.3-31.2,49-24.5c20.7,9.7-18.6,30-26.1,36.8c-9.1,6.4-17.3,13.5-23.7,22.7c-16.2,27.1-46.8,14.3-50.2,28.4
		c4,19.2,33.4,6.5,42.1-3.1c17.3-19,41.8-28.8,58.3-48.5c4.4-6.2,17.9-11.7,16.8,0.5c-2.8,13.4-10.9,25.1-16.4,37.6
		c-7.4,14.4-19.2,22.6-34.9,25.9c-23.9,6.2-60.4,16.6-59.2,47c0.4,14.6,18.5,4.4,23.5-2.1c3.4-4.4,9.4-10.8,14-4.1
		c9.1,11-2.3,37.7,12.9,42.7c11,0.6,15.4-15.4,11.8-24.3c-3.1-10.4-9.2-22.8,1.6-30.9c8.5-9.1,28.8-13.9,32.3,2.3
		c7.5,24.7-39.8,64.7-14.5,82.4c7.5,6.5,29.1,3.4,23.6-9.4c-6.9-9.9-20.6-24.4-5.8-34.2c3.3-2.2,6.8-4.1,10.4-5.6
		c19.3-7.7,19.5-38.3,2.8-47c-12.5-4.1-26.4-31.3-6.4-33.7c3.6,0.2,7.3,1.3,10.8,2.4c13.4,3.9,8.2-17.8,6.3-24.8
		c-6-13.4-5-17,5.9-26.7c4.5-5-3-8.2-6.2-11.1c-8.1-7.4,2.7-13.4,9.9-13.9c5.1-0.7,11,3.3,15.7,2.4c9.3-5.2,16.8-15.4,27.8-18.3
		c38.4-8.5,46.1,42.8-0.4,56.7c0.8,6.5,5.7,13.8,3.4,20.6c-5.9-4.6-5-13.9-7.7-20.6c-0.7-2.7,0.8-3.5,2.9-4.4
		c40.6-9.9,36.4-54.5,5.3-49.1c-9.9,3-18.3,9.9-26,16.7c-5.2,5.2-12.1-0.4-18.1-0.1c-33,3.7,16.7,10.5-9.2,29.1
		c-9.3,6.8,8.5,23.3,1.3,42.7c-4.2,13.3-18.6-3.5-26,4c-5.4,7.9,2.7,17.8,9.1,22.4c21.6,10.2,24.3,42.2,3.4,54.6
		c-9.1,4.5-23.5,10.3-15.4,22.5c38,38.8-38.1,44.9-27.6,3.1c5.4-20.6,24.5-38.6,20.7-60.9c-4.5-14.1-24.5-3.9-29.5,5.6
		c-5.2,15.2,15.4,33.9-3.4,48.5c-7,5.3-15.8,3-18.9-5.2c-4.6-12.1,0.4-26.4-7.4-37.2c-40.4,41.1-48.6-5.8-21.3-26
		c13.8-9.3,28.8-15.5,44.9-19.2c14.6-1.9,27-10.6,33.9-23.8c2.7-5.3,29.9-53.2,7.6-35.8c-10,12-22.4,20.8-35.3,29.4
		c-17.2,11.1-29.3,31.2-50.8,34.5c-15.1,4.2-33.4-13.3-15-22.6c13.7-4.1,30.6-3,39.3-16.3c11.2-15.8,26.4-27.1,42.1-38
		c5.3-4.8,16.2-10.3,16.7-18c-6.6-7.3-19.8-2.5-25.4,4.1c-6.8,7.7-14.9,13.7-24.2,17.9c-24.8,11.2-12.7,47.4-61.5,42.2
		c-13.8-1.5-19.2-23.9-3.4-23.9c9.7,1.5,24.2,4.8,26.4-7.9c1.7-6.9-1.3-14.1-8-16.6c-6.3-2.1-13.1-2.9-19.6-3.9
		c-40.3-8.7,44.2-64.9,46.9-16.6c-0.5,25.6,11.6,9.8,18.3-2.5c33.6-51.3,83.4,34.1,81.1-35.8c-0.5-13.1,4-27.1,0-39.5
		c-19.1,12.1-13.5,38.7-47.3,40.3c-30.1,0.8-67.1,28-92.1-0.4c-11.4-16.2,28.7-27.7,39.7-28.5c10,0.8,0.5,11.4,1.2,16.8
		c1.3,8.6,11.1-0.4,14.1-3.5c13.5-14.9,32,3.5,48.4-6.5c2.2-1,5.3-1.8,4.8-5c-2.8-7.6-14.4-3.6-20.7-4.2
		c-11.6,1.5-19.9-5.9-27.7-13.3c-15-11.8-28.5,12.1-43.8,12.7c-12.9,0.4-7.5-16.4-0.7-21.4c8.8-7.5,14-8.2,0.6-14.5
		c-23.3-10.9,10.2-43,24.7-4c6.3,9.9,18.4-10.6,29.7-6c17.5,2.1,7.6,24.9,21.3,25.3c12.3-1.1,27.2,0.4,37.7-6.5
		c5.9-11.2,17-27.8,14.1-40.7C451.5,86,456.7,60,456,34.1c0-1.5-1.1-3.9-2.3-4.2c-16.1,3.3-8.8,25.6-10,37.5
		c4.6,70-48,113.8-22.6,34.5C420.4,102.3,420.2,102.1,420,101.9z"/>
	<path class="st1" d="M547.3,378.2c10.8,28.5,39.5,50.1,70.2,38.7c24.4-8.8,50.7-27.2,76.2-10.9c43.4,29.3,62.5,18.1,106.1-1.5
		c26.8-13.8,56.1-10,84.1-2.8c0.7,0.1,1.3,1.6,1.9,2.4c-7.6,2.7-18.1-3.3-26.4-3.9c-39.3-9.3-72.1,19.3-108.8,26.8
		c-37.1,10.2-64.7-38.8-101.3-19.3c-35.8,19.6-74.1,26.1-98.4-13.7c-17-26-5-13.7,9.8-29.9c6.9-6.8,3.4-14.4-6.3-13.3
		c-11.5,0.1-21.4,4.2-30.1,11.6c-1.1,1.3-3,1.1-4.6,1.6c3.7-11.1,27.9-19.6,39.3-16.7C580.9,352.6,559.5,375.2,547.3,378.2z"/>
	<path class="st0" d="M103.6,100.5c-34.9,1.3-53.7-43.5-79.1,5.1c-0.6,1.3-1.2,3.4-3.1,2.2c-1.6-7,9.1-18,14.1-22.7
		c21.6-19,41.8,12.7,64.8,11.7c8,1.7,3-25.3,33.1-25.5c28.2,1.5,20.9,46.5,0.8,28.8c-5.8,10.8-21.4,8.7-16.6-4.8
		c3.5-8.7,15.1-8.3,18.6,0c0.8,2.2,3.7,4.8,5.7,5c17.5-7.5-1.5-33-19-23.3c-30.6,13.1-9.4,62.1,20.4,51.6
		c16.6-5.8,17.2-18.6,27.7-25.8c0,8.7-12.1,20.4-19.1,25.6C126.7,143.5,104.8,122.9,103.6,100.5z M120.3,100.7
		c3.5,5.8,9.9,0.7,11-4.4C130,88.6,119.9,93.4,120.3,100.7z"/>
	<path class="st1" d="M574.7,340.5c-6.8-1.9-15.2,0.5-20.7-4.2c5.7-3.4,12.9,0,19.2,0c12.5-0.6-2.7,25,12.6,44.6
		c19,22.5,40-11.4,43.6-29.5c2.1-7.4,2.5-14.9-0.2-22.4c-0.2-0.8,0.5-2.1,0.8-3c14,11.6-2.4,46.9-13.3,57.5
		c-8.6,9.9-22.6,12.1-32,2.1C572.4,373.6,574.8,356.1,574.7,340.5z"/>
	<path class="st1" d="M583.2,236.3c8.8-1.5,17-3.7,25.4-4.1c23.2-2.7,41.2,27,25.1,44.9c-6.5,6.8-33.7,20.3-41.1,12.8
		c1-0.6,1.8-1.6,2.8-1.6c12-0.4,22.6-4.6,32.2-11.2c9.8-6.9,11.1-19.7,3.5-30.3c-10.8-15.6-29.7-11-44.9-6c-4.6,1.3-5.7,0.8-6.8-3.7
		c-1.7-7.7-3.4-15.5-4.8-23.2C578.6,202,582.4,234.3,583.2,236.3z"/>
	<path class="st1" d="M502.6,123.7c-5.7-12-11.1-23.6-16.7-35.2c-1.5-1.8-0.8-3.7-0.5-5.8c1,0.6,2.4,1,2.9,1.9
		c5.7,12,11.4,23.9,16.9,36c2.2,4.7,1.2,6.2-3.7,7.5c-14.5,1.1-30.2,29.1-9.1,29.5c8.5,0,16.1-3,23.3-7.3c5.2-2.2,9.4-8.5,15.4-7.4
		c-0.4,1-0.5,2.4-1.2,3c-12.2,8.8-26.2,17.2-42,15.1c-6.2-0.6-9.2-4.5-9.4-10.6C478,136.8,489.2,126.2,502.6,123.7z"/>
	<path class="st1" d="M484.6,408.4c1,4.5-2.8,13.4,3.6,14.1c14.7,1.8,33.2,7.9,37.1,24.1c4.8,26-31.3,35.9-47.9,23.6
		c-0.8-0.5-1.1-2.3-1.6-3.5c13.7,3,26.4,10.5,39.8-2.4c8.7-8.6,8.3-19.7-1-27.6c-19.7-16.3-35.3-2.8-34.1-20.8
		c0.5-6.9-2.1-15,1.6-21.2c3.7,3.5,1.7,8.9,2.2,13.5C484.5,408.4,484.5,408.4,484.6,408.4z"/>
	<path class="st1" d="M545.7,160.9c-5.6,3.6-13.7,15.4-19.6,14.7c-0.2-3.9,3.7-5.4,6-8c21.6-21.9,12.8-2.5,40.6,1.9
		c20.6,3.4,28.3-13.7,25.4-27.2c-2.5-11.7-9.3-20.7-19.3-27.2c-0.7-0.5-1.1-1.8-1.6-2.7c14.6-2.3,27.7,27.9,25,40.4
		C598.2,181.4,562.2,176.9,545.7,160.9z"/>
	<path class="st0" d="M193.4,83.8c4-0.1,7.7-1.5,10.9,1.7c-3.1,2.5-6.9,1.9-10.8,2.3c0,2.3,0,4.2,0,6.8c3.1-0.4,6-1.5,8.7,0.7
		c-0.8,0.8-1.6,2.1-2.4,2.3c-11.2,0.8-3.7,8.7-8.7,15c-2.9-4.1-1.5-8.7-1.7-13.5c-14.6-0.6-4.1,8.1-10.2,14.7
		c-3.3-3.7-1.2-8.7-1.7-13.5c-3.7,0.2-6.3,1.5-9.2-1c2.2-3.1,5.4-2.5,8.9-3c0-2.1,0-4,0-6.3c-2.9,0.4-5.3,1-7.7-0.8
		c1.3-3.3,5.9-2.2,7.6-3.7c1.9-3.5-1-9.1,2.4-12.2c3.4,3.3,1.6,7.6,1.9,12.1c2.7-0.4,5-0.6,7.5-1c0.4-5.3-1-10.8,1.1-15.6
		C194.8,72.1,192.4,78.5,193.4,83.8z M189.2,88.5c-7.9-0.1-8.9,0.8-7.6,7.3c2.4-0.2,5-0.6,7.6-0.8C189.2,92.6,189.2,90.7,189.2,88.5
		z"/>
	<path class="st1" d="M545.6,229.6c3,5.9,15.4,16.9,13.5,22.4c-5.8-1.1-12.3-15.5-16.8-20.4c-2.7-7.7,15.2-15.4,11.1-29.1
		c-1.7-8.7-8.1-13.1-16.8-11.5c-13.7,2.1-22,13.1-30.3,22.7c-3,3.1-6.3,1-3.1-2.3C530.8,167.8,581.3,188.6,545.6,229.6z"/>
	<path class="st1" d="M499.4,83.4c2.2,4.5,7.7,9.2,6.6,14c-3,2.7-7.4-8.9-9.3-11.1c-1.8-3.4-1.2-4.8,1.8-7.3
		c7.4-6.2,18-11.6,17.3-22.7c-2.5-26.2-37.8-15.8-37.1,7.9c-0.1,2.9,1.1,6-1.2,8.5c-0.7-0.6-2.2-1.2-2.2-1.8
		c-2.8-16.2,7.9-34.2,24.7-33.9c14.9-0.1,24.3,15.1,17.9,28.7C513.9,73.9,506.6,78.5,499.4,83.4z"/>
	<path class="st1" d="M599.7,325.1c1.7-20.3-4.4-11.5-19-15.2c-12.1-2.7-17.3-11.8-13.9-23.8c4.4-17.3,20.7-24.7,36.3-29.4
		c3.6-0.8,5.9,2.3,1.5,3.6c-15.8,2.9-33.1,13.9-34.6,31.3c-0.5,6.6,2.5,11.7,9.1,13.5c8.2,3.9,25.9-2.7,24.7,11
		c-1,7,1.6,15.7-3,21.4c-2.9-3.6-1.1-8.2-1.2-12.6C599.6,325.1,599.6,325.1,599.7,325.1z"/>
	<path class="st1" d="M502,363.1c-1.8-8.6-15.7-33.5-11.6-39.5c0.7,0.6,1.9,1,2.2,1.8c4.2,11.6,8.3,23.3,12.6,34.9
		c1.2,3.1,1.2,5.6-1.9,7.6c-17.7,24.3,1.2,53.4,27.7,15.2c0.4,0.1,0.8,0.1,1.2,0.2c0.7,7.9-9.4,15.5-15.5,19.6
		C490.9,416.6,486.1,375.5,502,363.1z"/>
	<path class="st1" d="M597.4,182.6c-12.1,1.8-24.9,3.6-37.8,5.6c-1.8,1-3.1-0.5-4.6-1.2c7.3-6.4,49.2-9.4,58.9-5.6
		c15.6,5.9,2.1,22.1-8.9,24.1c-8.8,1.9-2.7,5.1-6.6,10.9c-0.7-1.1-2.1-2.2-2.3-3.3c-0.8-7.6,0-8.5,7.1-11.4
		c7.3-1.9,21.9-12.6,8.3-17C607.3,183.5,602.9,183.3,597.4,182.6z"/>
	<path class="st1" d="M554,133.1c2.2,2.9,17.7,13.1,14.3,15.5c-2.3,2.7-3.7-0.8-5.2-2.1c-25.1-19.3-5.6-12.1-3.5-32.8
		c0-10.8-12-6.4-18-3.9c-8.5,3.6-15.8,8.9-22.1,15.7c-0.7,0.7-2.2,0.8-3.3,1.2c0.4-10.6,24.9-22.5,34.9-23.8
		C570,100.7,564.2,125.6,554,133.1z"/>
	<path class="st1" d="M554.4,86.8c-41.1,39.7-51.9-5.2-25.6-23.5c0.8,5-4,8.1-6,12.2c-5.6,7.4-7,26.7,7,22.8
		c10.6-0.7,23.2-21,27.2-14.3c2.9,4.5,8.8,7.9,8.5,13.7C560.2,96.4,557.9,90.3,554.4,86.8z"/>
	<path class="st1" d="M546.8,421.2c-2.5-3.1-5.9-4.5-5.4-8.6c4.1-0.4,6,3.7,8.3,6.4c4.4,6.9-11.2,8.1-14.3,13.1
		c-4.2,4.4-3.4,9.8,1.7,13.2c12.1,7,26.1-1.2,37-7c2.1-2.2,6.6-1.2,4.1,1.9C539.5,468.1,506.9,436.5,546.8,421.2z"/>
	<path class="st1" d="M497.7,233c-23.2-0.6-14.3-29.7,0.1-37.1c5.8-4-3.4-9.7,0.2-14.5c4.5,1.2,4.1,7,5.8,10.6
		c0.4,10-19.5,12.6-16.2,29.4c2.4,14.6,21.8,5.4,28.9-0.6c1.1-1.5,2.9-1.5,4.6-1.8C519.4,228,504.8,232.1,497.7,233z"/>
	<path class="st1" d="M548.8,293.8c1.2-9.7-2.8-25.1,1.7-32.8c4.6,7,1.5,21.9,2.8,30.7c0.1,4.7-0.6,5.6-5.2,6.3
		c-16.3,3.6-18.7,22.2,2.7,18.6c4.1-1,5,2.4,0.8,3.7C525.6,327,525.6,296.5,548.8,293.8z"/>
	<path class="st0" d="M232.7,74c-0.7,10.3-1.6,21.8-2.5,33.2c-0.1,1.1-1.3,2.1-2.1,3c-0.5-1.1-1.6-2.3-1.5-3.4c0.7-16,1.5-32,2.4-48
		c0.1-1.1,1.3-2.1,2.1-3C234.4,61.2,232,67,232.7,74z"/>
	<path class="st0" d="M214.3,81.6c1.1-3.6-1-24.3,3.3-23.1c0.7,0.1,1.5,2.2,1.5,3.4c-0.5,12.1-1.1,24.3-1.7,36.4
		c0.1,2.2-0.2,4-2.1,5.2C211,98.7,215,88,214.3,81.6C214.4,81.6,214.4,81.6,214.3,81.6z"/>
	<path class="st2" d="M514.5,338.1c-2.4,2.3-3.6,3.3-6,0.2c1.9-2.4,3-3.7,5.9-1.5C514.5,337.2,514.5,337.7,514.5,338.1z"/>
	<path class="st1" d="M516.3,181c1.5,1.3,2.4,2.2,3.4,3.1c-2.4,3-3.6,1.9-6-0.2C514.4,183.1,515,182.3,516.3,181z"/>
	<path class="st1" d="M537.8,329.7c1.7,2.5,5.3,4.5,1.9,6.4C537.6,333.8,534.4,333.2,537.8,329.7z"/>
	<path class="st0" d="M215.4,112.1c-1.8-2.8-3.1-3.7-0.4-5.9C217.5,108.6,218.7,109,215.4,112.1z"/>
	<path class="st1" d="M573.9,201.1c-1.5,1.1-2.3,1.8-3.1,2.4c-2.2-2.2-2.1-3.1,0.4-5C571.8,199.1,572.5,199.9,573.9,201.1z"/>
	<path class="st0" d="M228.6,115.8c1,1.3,1.5,2.2,2.1,2.9c-1.7,1.3-3.6,2.9-4.7,0.2C226.4,118,227.4,117.3,228.6,115.8z"/>
	<path class="st1" d="M495.4,169.8c-2.8,1.9-3.6,2.9-5.6,0.1C491.9,167.5,492.5,167.2,495.4,169.8z"/>
	<path class="st1" d="M482.5,378.3c2.4,2.4,2.7,3.9-0.1,5.2C478.8,382.7,480.6,380.7,482.5,378.3z"/>
	<path class="st1" d="M490.2,311.8c1.6,2.3,3,4.1,0.2,5.2C488.1,315.2,487.2,314.5,490.2,311.8z"/>
	<path class="st1" d="M512.4,107.3c1.7,2.8,2.8,4.6-0.5,5.6C509.1,111.5,510.4,109.8,512.4,107.3z"/>
	<path class="st1" d="M481,74c2.5,2.8,2.7,3.4,0.4,5.7C478.7,77.9,479.3,77.2,481,74z"/>
	<path class="st1" d="M604.6,353c-2.2,2.1-4,2.9-5,0.1C600.4,350,602.3,351.1,604.6,353z"/>
	<path class="st1" d="M601.2,224.3c-2.3,1.9-3,2.8-5,0.4C598,222.6,598.5,221.8,601.2,224.3z"/>
	<path class="st1" d="M573.7,103.3c-2.3,1.8-4.1,2.3-4.7-0.5C570.1,100.1,571.7,101,573.7,103.3z"/>
	<path class="st1" d="M538.8,405c-2.7,3-3.1,1.6-5.1-0.5C535.6,401.9,536.5,403.3,538.8,405z"/>
	<path class="st1" d="M576.6,157.1c-2.5-2.2-2.3-2.8-0.1-4.6C578.6,154.2,578.4,154.8,576.6,157.1z"/>
	<path class="st1" d="M550,257.5c-2.4-2.2-2.3-2.7-0.1-4.5C552.2,254.6,552,255.4,550,257.5z"/>
	<path class="st1" d="M563.3,257.5c2.1,2.4,2.3,2.9,0,4.6C561.2,260.4,561.3,259.8,563.3,257.5z"/>
</g>
</svg>
