<?xml version="1.0" encoding="utf-8"?>
<!-- Generator: Adobe Illustrator 26.0.0, SVG Export Plug-In . SVG Version: 6.00 Build 0)  -->
<svg version="1.1" id="Capa_1" xmlns="http://www.w3.org/2000/svg" xmlns:xlink="http://www.w3.org/1999/xlink" x="0px" y="0px"
	 viewBox="0 0 907.1 907.1" style="enable-background:new 0 0 907.1 907.1;" xml:space="preserve">
<style type="text/css">
	.st0{fill:#FFFFFF;}
	.st1{fill:#B80001;}
	.st2{fill:#B40005;}
</style>
<path class="st0" d="M419.3,341.2c0.2,0.1,0.4,0.3,0.5,0.4c-21,65.6,22.5,29.3,18.7-28.5c1.1-9.8-5.1-28.2,8.3-31
	c0.9,0.3,1.8,2.3,1.9,3.5c0.7,21.4-3.7,42.9,2,64c2.4,10.5-6.8,24.4-11.7,33.7c-8.7,5.7-21.1,4.5-31.2,5.4
	c-11.4-0.2-3.1-19.1-17.6-20.9c-9.4-3.7-19.3,13.2-24.6,5c-12-32.3-39.7-5.6-20.4,3.3c11.3,5.2,6.6,5.9-0.5,12
	c-5.6,4-10.1,18,0.6,17.7c12.6-0.4,23.9-20.3,36.2-10.5c6.5,6.1,13.3,12.2,22.9,11c5.3,0.5,14.8-2.8,17.1,3.5c0.4,2.6-2.2,3.3-4,4.1
	c-13.5,8.3-28.8-6.9-40,5.4c-2.5,2.7-10.6,10-11.7,2.9c-0.6-4.5,7.4-13.2-0.9-13.9c-9.3,0.7-42.2,10.1-32.8,23.6
	c20.7,23.4,51.3,0.9,76.2,0.3c27.9-1.3,23.3-23.2,39.1-33.3c3.4,10.4-0.3,21.9,0,32.7c1.9,57.8-39.3-12.8-67.1,29.6
	c-5.5,10.3-15.5,23.2-15.1,2c-2.2-40-72.1,6.5-38.8,13.7c5.4,0.7,11,1.5,16.2,3.2c5.5,1.9,8,8,6.6,13.7c-1.9,10.5-13.9,7.7-21.8,6.5
	c-13,0-8.6,18.5,2.8,19.8c40.5,4.2,30.3-25.6,50.9-34.9c7.7-3.5,14.4-8.3,20-14.8c4.7-5.5,15.5-9.4,21-3.4
	c-0.4,6.3-9.4,10.9-13.8,14.9c-13,9-25.5,18.2-34.8,31.4c-7.2,11-21.2,10.1-32.5,13.5c-15.2,7.6-0.2,22.2,12.4,18.7
	c17.8-2.7,27.8-19.4,42-28.5c10.6-7.1,20.9-14.4,29.2-24.3c18.4-14.4-4.2,25.2-6.3,29.6c-5.7,10.9-15.9,18.1-28,19.7
	c-13.3,3.1-25.7,8.1-37.1,15.9c-22.6,16.8-15.8,55.5,17.6,21.5c6.4,9,2.3,20.9,6.1,30.8c2.5,6.8,9.8,8.8,15.6,4.3
	c15.6-12.3-1.5-27.5,2.8-40.1c4-7.7,20.7-16.3,24.4-4.6c3.2,18.5-12.7,33.4-17.1,50.4c-8.7,34.5,54.2,29.6,22.8-2.6
	c-6.8-10.2,5.2-14.9,12.7-18.6c17.3-10.3,15.1-36.7-2.8-45.2c-5.3-3.8-12-12-7.5-18.5c6.2-6.3,18.1,7.7,21.5-3.3
	c6-16.1-8.8-29.4-1.1-35.3c21.4-15.4-19.7-21,7.6-24.2c5-0.1,10.8,4.4,15,0.1c6.4-5.6,13.3-11.3,21.5-13.8
	c25.8-4.5,29.2,32.4-4.4,40.6c-1.7,0.7-3,1.4-2.4,3.6c2.3,5.5,1.6,13.2,6.4,17c1.8-5.6-2.1-11.5-2.8-17
	c38.5-11.6,32.1-53.9,0.3-46.9c-9.1,2.5-15.3,10.9-23,15.1c-4,0.7-8.8-2.6-13-2c-6,0.4-14.9,5.3-8.2,11.5c2.6,2.4,8.8,5.1,5.1,9.2
	c-9,8.1-9.8,11-4.9,22.1c1.6,5.9,5.8,23.7-5.2,20.5c-2.9-0.9-5.9-1.8-8.9-2c-16.5,1.9-5,24.5,5.3,27.9c13.8,7.2,13.7,32.5-2.3,38.9
	c-3,1.2-5.9,2.8-8.6,4.6c-12.2,8.1-0.9,20.1,4.8,28.3c4.6,10.7-13.3,13.2-19.5,7.8c-21-14.6,18.2-47.9,11.9-68.2
	c-3-13.3-19.6-9.3-26.7-1.9c-8.9,6.7-3.9,17-1.3,25.6c2.8,7.4-0.8,20.6-9.8,20.1c-12.7-4-3.2-26.2-10.7-35.3
	c-3.8-5.5-8.9-0.1-11.6,3.4c-4.2,5.4-19.1,13.7-19.4,1.7c-1-25.2,29.2-33.8,49-38.9c13-2.7,22.9-9.5,28.9-21.4
	c4.6-10.3,11.3-20,13.6-31.1c0.8-10.1-10.3-5.5-13.9-0.4c-13.6,16.4-33.9,24.5-48.2,40.1c-7.2,8-31.4,18.5-34.8,2.6
	c2.4-11.5,28.3-1.3,41.5-23.5c5.2-7.6,12.1-13.5,19.6-18.8c6.3-5.7,38.7-22.4,21.6-30.4c-17.9-5.5-25.8,15-40.5,20.3
	c-20.8,9.1-12.1,32.5-39.8,35.3c-17.6,3.3-23.9-14.1-12.2-14c7.3,1.2,15.9,3.8,21.3-3.1c11.2-19-8-26.2-24-26.5
	c-19.7-5.6,26.8-34.6,33.3-19c3.4,4.9,3.2,11.4,3.8,17.2c5,15.3,17.3-2.7,20.8-9.8c7.4-12.6,24.1-15.4,36.5-8.8
	c15,8.7,31.5,7.8,30.3-13.3c0.3-13.1,1.5-26.4,1.3-39.4c-4.4-14.8-17,6.5-19.3,12.7c-5,10.2-13.4,15-24.3,15.7
	c-17.9-0.2-33.4,10.9-51.3,10.3c-8.6,0.8-32.4-8-19.4-18c8.8-4.8,18.3-10,28.5-9.9c-9.4,18.8,3.9,21.7,15.8,8.3
	c10.3-8,24.2,6.7,39.9-4.6c4.7-3,4.1-8.7-1-11c-5-1.8-10.8-1-16.1-1c-8,1-14.1-3.8-19.5-9.1c-12.9-13.3-25.9,4.6-38.9,8.3
	c-7.4,2.1-3.5-7.7-0.8-10.4c3.4-4.5,15.6-9.5,7.2-15.3c-3-2-6.4-3.4-9.3-5.6c-6.7-6.8,7.7-15,12.8-8.2c5,5.2,7.1,19.6,17,14.4
	c7.2-5.6,20.8-12,24,1.1c0.8,14.4,10.5,14.1,22.1,13.1c8.1-2.5,20.4-0.6,24.4-9.5c5.7-13.8,13.5-22.9,8.9-38.4
	c-3.8-19.3,0-38.7-0.6-58.2c0.6-6-6.4-9.1-10.7-4.7c-6.6,4.6-6.2,13.3-6.1,20.5c1.2,22.8,0.7,47.6-11.8,67.6c-4,6-8.1,4.2-6.6-2.4
	c-0.6-5,12.7-33.3,0.9-27.5c-7.9,5.1-12.8,14.1-21.1,18.8c-0.3-0.1-0.6-0.3-0.9-0.4c-1.1-18,16.4-28.3,26-41.1
	c16.5-23-17.1-45.4-16.5-24.1c1.8,5.4,5.1,10.3,6.8,15.7c-0.2,12.6-13.1-3.1-15-7.5c-6.1-7.4-16.3,3.4-12.7,10.8
	c2.5,6.5,6.9,13.3,3,20.2c-3.6,6.5-8.2,13.1-15,16.5c-0.3-0.2-0.6-0.4-0.8-0.5c-0.1-7.9,6.4-14.6,4.6-22.4c-5.8,0-9,5-12.9,8.6
	c-4.4,4.5-13.2,8.7-18.6,4c-6.5-8-8.5,4-12.9,7.9c-4-16.3-2.7-32.6-5.4-49.1c-8.1-17.5-18.7,70.7-23.7,75.5
	c-7.7-20.7-4.9-44.2-6-66.1c-1.9-21.9-10.2,0-11.2,8.6c-3.1,17.6-4.5,35.6-8.7,53c-0.4,0-0.8,0-1.2-0.1c-2.7-21.2,0.7-42.5,1-63.8
	c0-4.2-3.3-3.9-3-0.2c-0.3,6.5-8.1,77.4,5,66.6c7.1-22,6.5-46.5,13.9-68.6c3.4,6.2-2.6,87,13.2,71.3c8.6-23.4,9.7-49.3,17.3-73.2
	c0.2,0,0.5,0,0.7,0.1c2.3,10.1-0.7,73,17,38.1c10.1,13.4,24.3-1.4,32.5-9.2c-10.4,28.7,0.3,28.9,15.6,6.7c6.2-8.3,1.6-17.6-1.9-26
	c-1.6-5.9,6.6-11.6,9.2-4.2c2.8,8.2,19.8,18.4,19.1,3.4c-1.1-5.6-4.6-10.5-6.7-15.7c-1.5-3.7,1.9-6,5.1-5
	c10.2,4.8,12.1,19.2,5.1,27.6c-7.9,10.1-19.5,17.8-24.1,30.2c-2.6,5.2-3.7,20.4,5.9,14C407.3,353.8,412.6,346.7,419.3,341.2z
	 M524.6,563c10.1-2.5,27.8-21.1,10-25.4c-9.4-2.4-29.4,4.6-32.5,13.8c1.3-0.4,2.9-0.2,3.8-1.3c7.2-6.1,15.4-9.5,24.9-9.6
	c8.1-0.9,10.7,5.4,5.2,11c-12,13.4-22.3,3.1-8.1,24.7c19.8,32.8,52.1,27.6,81.4,11.3c30.3-16.1,53.1,24.4,83.8,16
	c30.5-6.3,57.5-29.9,90-22.2c6.9,0.6,15.4,5.4,21.8,3.2c-0.5-0.7-1-1.9-1.6-2c-23.2-6-47.4-9-69.6,2.4
	c-36.2,16.2-51.9,25.3-87.8,1.2c-21.1-13.5-42.8,1.7-63,9C557.3,604.4,533.5,586.6,524.6,563z M157.6,333.3
	c1,18.5,19.1,35.6,39.9,23.1c5.8-4.4,15.8-14,15.8-21.2c-8.7,5.9-9.3,16.6-22.9,21.3c-24.7,8.7-42.2-31.9-16.9-42.7
	c14.6-8,30.3,13.1,15.7,19.3c-1.6-0.2-4-2.3-4.7-4.1c-2.8-6.9-12.4-7.2-15.4,0c-4,11.2,8.9,12.9,13.7,4
	c16.6,14.6,22.7-22.5-0.7-23.8c-24.8,0.2-20.7,22.4-27.3,21.1c-18.9,0.7-35.7-25.5-53.6-9.7c-4.3,4-12.9,12.9-11.7,18.8
	c1.6,1,2.1-0.7,2.6-1.8C113.3,297.3,128.7,334.4,157.6,333.3z M547.3,531.8c0.1,12.9-1.8,27.4,8.3,37.4c7.7,8.4,19.4,6.6,26.5-1.7
	c9-8.9,22.6-38.1,11-47.6c-0.3,0.9-1,1.9-0.7,2.5c2.3,6.2,1.9,12.4,0.2,18.5c-3,14.9-20.4,43-36.1,24.4
	c-12.6-16.3-0.1-37.4-10.4-36.9c-5.2,0-11.2-2.8-15.9,0C534.7,532.2,541.6,530.2,547.3,531.8z M554.3,445.6
	c-0.7-1.7-3.8-28.3-7.2-18.7c6.8,25.5-2,25.2,22.7,18.8c19.6-5.9,39,20.1,21.1,33.5c-7.9,5.5-16.7,9-26.6,9.3
	c-0.8,0-1.5,0.9-2.3,1.3c6,6.2,28.6-5,34-10.6c13.2-14.8-1.6-39.3-20.8-37.1C568.4,442.5,561.6,444.4,554.3,445.6z M487.7,352.5
	c-11.1,2.1-20.4,10.8-19.9,22c0.2,5.1,2.7,8.3,7.8,8.8c13,1.7,24.6-5.2,34.7-12.5c0.6-0.4,0.7-1.6,1-2.5c-4.9-0.9-8.4,4.3-12.7,6.1
	c-5.9,3.5-12.2,6-19.3,6c-17.4-0.3-4.5-23.5,7.5-24.4c4.1-1.1,4.9-2.3,3.1-6.2c-4.6-10-9.2-19.9-14-29.8c-0.4-0.7-1.6-1.1-2.4-1.6
	c-0.3,1.7-0.9,3.3,0.4,4.8C478.5,333,483,342.6,487.7,352.5z M472.8,588c-0.1,0-0.1,0-0.2,0c-0.4-3.8,1.3-8.3-1.8-11.2
	c-3,5-0.9,11.8-1.3,17.5c-1,14.9,11.9,3.7,28.2,17.2c7.8,6.4,8,15.7,0.8,22.8c-11.1,10.6-21.5,4.5-32.9,2c0.4,1,0.6,2.4,1.3,2.9
	c13.7,10.2,43.6,2,39.6-19.5c-3.2-13.4-18.6-18.4-30.7-19.9C470.5,599.1,473.6,591.7,472.8,588z M523.3,383.3
	c13.7,13.2,43.4,17,46.9-6.5c2.2-10.3-8.6-35.3-20.7-33.4c0.4,0.8,0.6,1.8,1.3,2.2c8.3,5.4,13.9,12.8,16,22.5
	c2.4,11.2-4,25.3-21,22.5c-23.1-3.7-15.8-19.7-33.6-1.6c-1.9,2.1-5.2,3.3-5,6.6C511.9,395.9,518.7,386.2,523.3,383.3z M231.9,319.5
	c-0.8-4.3,1.2-9.6-2.8-12.4c-1.7,4.1-0.6,8.6-0.9,12.9c-2.1,0.3-4,0.5-6.2,0.8c-0.3-3.8,1.2-7.3-1.6-10c-2.8,2.6-0.5,7.2-2,10.1
	c-1.4,1.3-5.2,0.4-6.3,3.1c2,1.5,4.1,1,6.4,0.7c0,1.9,0,3.4,0,5.2c-2.9,0.4-5.6,0-7.4,2.5c2.4,2,4.5,1,7.6,0.8
	c0.4,4-1.2,8.1,1.4,11.2c5-5.5-3.7-12.8,8.4-12.2c0.3,4.1-1,7.9,1.4,11.2c4.2-5.2-2-11.8,7.2-12.4c0.8-0.2,1.4-1.3,2-1.9
	c-2.2-1.7-4.6-0.9-7.2-0.6c0-2.1,0-3.8,0-5.6c3.2-0.4,6.3,0.2,8.9-1.9C238.3,318.2,235.2,319.4,231.9,319.5z M523.2,440.1
	c29.6-33.9-12.3-51.1-35.1-15.1c-2.6,2.6,0.1,4.5,2.6,1.9c6.9-8,13.8-17.2,25.1-18.8c7.3-1.3,12.5,2.3,14,9.5
	c3.4,11.5-11.4,17.7-9.2,24.1c3.8,4.1,9.1,16,13.9,16.9C535.9,453.9,525.8,445,523.2,440.1z M485,319.2c6-4.1,12-7.9,15.3-14.7
	c5.3-11.3-2.5-23.8-14.8-23.7c-13.9-0.2-22.7,14.6-20.4,28c0,0.5,1.2,1,1.8,1.5c1.9-2,0.9-4.5,1-7c-0.6-19.6,28.7-28.1,30.7-6.4
	c0.6,9.2-8.2,13.7-14.3,18.8c-5.8,3.8,1.3,9.5,3.2,13.6c0.7,1.1,1.4,2.8,3,1.5C491.4,326.8,486.7,322.9,485,319.2z M568,519.1
	c-0.1,0-0.1,0-0.2,0c0,3.5-1.5,7.3,1,10.4c3.9-4.6,1.7-12,2.5-17.7c0.9-11.3-13.6-6-20.4-9.1c-5.4-1.4-7.9-5.6-7.5-11.2
	c1.2-14.4,15.5-23.5,28.6-25.9c3.7-1.1,1.9-3.7-1.2-3c-12.9,3.8-26.4,10-30,24.3c-2.8,9.9,1.6,17.5,11.5,19.7
	C564.4,509.6,569.4,502.4,568,519.1z M487.2,550.5c-13.1,10.4-9.1,44.3,12.2,32.8c5.1-3.4,13.4-9.6,12.8-16.2
	c-0.3-0.1-0.7-0.1-1-0.2c-21.8,31.7-37.5,7.5-22.9-12.6c2.7-1.7,2.6-3.7,1.6-6.3c-3.5-9.6-6.9-19.3-10.4-28.9
	c-0.2-0.6-1.2-1-1.8-1.5C474.1,522.7,485.7,543.3,487.2,550.5z M566.1,401.2c6.6,0.7,22.1,1.7,13.8,10.7c-5.2,5.8-17.7,4.3-15,14.6
	c0.1,1,1.2,1.8,1.9,2.7c3.3-4.9-1.8-7.4,5.5-9c9.1-1.6,20.3-15,7.4-19.9c-7.8-3.2-42.7-0.7-48.7,4.6c1.3,0.6,2.4,1.8,3.8,1
	C545.5,404.2,556.2,402.6,566.1,401.2z M530.2,360.3c8.4-6.3,13.1-26.8-2.4-24.9c-8.2,1.2-28.6,10.9-28.9,19.7
	c0.9-0.3,2.1-0.4,2.7-1c5.2-5.6,11.3-9.9,18.3-13c16.2-8.3,19.5,5.1,9,15.6c-6,6.1,5.4,10.6,8.8,14.8c1.2,1,2.3,3.8,4.3,1.7
	C544.9,371.2,531.9,362.7,530.2,360.3z M530.5,322c2.8,2.9,4.7,7.9,9.1,9c0.4-4.8-4.5-7.6-7-11.3c-3.3-5.6-13.8,11.3-22.5,11.8
	c-11.6,3.2-10.5-12.8-5.8-18.9c1.7-3.4,5.7-5.9,5-10.1C487.6,317.7,496.5,354.7,530.5,322z M524.2,598.6
	c-33,12.6-5.9,38.9,26.2,15.7c2.1-2.6-1.7-3.4-3.4-1.6c-9,4.8-20.7,11.5-30.6,5.8c-4.2-2.8-5-7.3-1.4-10.9
	c2.4-4.1,15.4-5.1,11.8-10.8c-2-2.2-3.5-5.6-6.9-5.3C519.3,594.8,522,596,524.2,598.6z M483.6,442.9c5.9-0.7,18-4,19.3-11.7
	c-1.4,0.3-2.9,0.3-3.8,1.5c-4.9,3.8-10.1,6.7-16.5,6.8c-10.3,0.5-8.7-14.1-3.2-19.1c2.7-3.9,10.1-6,9.3-11.5c-1.4-3-1.2-7.7-4.8-8.8
	c-2.9,4,4.7,8.7-0.2,12C471.8,418.3,464.4,442.4,483.6,442.9z M525.9,493.2c-19.2,2.2-19.2,27.5,2.2,22.1c3.4-1.2,2.7-4-0.7-3.1
	c-17.7,3-15.6-12.4-2.2-15.4c3.8-0.6,4.4-1.3,4.3-5.2c-1-7.3,1.6-19.6-2.3-25.4C523.6,472.4,526.9,485.2,525.9,493.2z M265.1,313.7
	c-0.5-5.8,1.4-10.6-1.4-15c-0.6,0.8-1.6,1.7-1.7,2.5c-0.8,13.2-1.4,26.5-2,39.7c0,0.9,0.8,1.9,1.2,2.8c0.6-0.8,1.6-1.7,1.7-2.5
	C263.8,331.7,264.4,322.2,265.1,313.7z M249.2,317.7C249.3,317.7,249.3,317.7,249.2,317.7c0.6,5.3-2.7,14.1,0.8,18.1
	c1.5-1.1,1.8-2.6,1.7-4.3c0.5-10,1-20.1,1.4-30.1c0-0.9-0.6-2.6-1.2-2.8C248.5,297.4,250.1,314.8,249.2,317.7z M497.5,529.8
	c0-0.4-0.1-0.7-0.1-1.1c-2.4-1.8-3.3-0.7-4.9,1.2C494.6,532.5,495.6,531.7,497.5,529.8z M499,399.9c-1,1.1-1.6,1.7-2.2,2.3
	c2,1.8,2.9,2.7,5,0.2C500.9,401.8,500.1,401,499,399.9z M516.8,522.9c-2.9,2.9-0.3,3.4,1.6,5.3C521.2,526.5,518.3,525,516.8,522.9z
	 M248.5,347.8c2.7-2.6,1.7-3-0.3-4.9C245.9,344.7,247,345.4,248.5,347.8z M546.6,416.5c-1.1-1-1.7-1.5-2.3-2.1
	c-1.9,1.5-2.1,2.4-0.3,4.1C544.7,418,545.4,417.4,546.6,416.5z M262.2,349.8c-1,1.1-1.8,1.8-2.2,2.6c0.9,2.2,2.5,0.9,3.9-0.2
	C263.4,351.6,263,350.9,262.2,349.8z M481.7,390.6c-2.3-2.1-2.9-1.9-4.6,0.1C478.7,393,479.4,392.2,481.7,390.6z M471,563.1
	c-1.5,1.9-3,3.5-0.1,4.3C473.1,566.4,472.9,565.2,471,563.1z M477.4,508.1c-2.5,2.2-1.7,2.7,0.2,4.3
	C480,511.6,478.7,510,477.4,508.1z M495.8,338.9c-1.6,2.1-2.8,3.5-0.4,4.6C498.1,342.7,497.2,341.2,495.8,338.9z M469.8,311.4
	c-1.4,2.6-1.9,3.2,0.3,4.7C472,314.2,471.9,313.8,469.8,311.4z M572,542.2c-1.9-1.6-3.5-2.5-4.1,0.1
	C568.7,544.5,570.2,543.9,572,542.2z M569.2,435.7c-2.2-2.1-2.6-1.5-4.1,0.3C566.7,438,567.3,437.3,569.2,435.7z M546.5,335.6
	c-1.7-1.9-3-2.6-3.9-0.4C543.1,337.4,544.6,337.1,546.5,335.6z M517.6,585.2c-2-1.5-2.6-2.7-4.2-0.4
	C515.1,586.6,515.4,587.7,517.6,585.2z M548.9,380.1c1.5-1.9,1.7-2.4-0.1-3.8C547,377.9,546.8,378.3,548.9,380.1z M526.9,463.2
	c1.6-1.8,1.8-2.4-0.1-3.7C525,460.9,524.9,461.4,526.9,463.2z M537.9,463.2c-1.7,1.9-1.9,2.4,0,3.8
	C539.8,465.6,539.7,465.1,537.9,463.2z"/>
<path class="st1" d="M419.3,341.2c-6.4,3.8-17.6,22.2-24.6,18.8c-4.1-3.9-1.5-10.3-0.2-14.9c4.6-12.5,16.2-20.1,24.1-30.2
	c7-8.3,5-22.8-5.1-27.6c-3.2-1-6.6,1.3-5.1,5c2.2,5.2,5.6,10.1,6.7,15.7c0.7,15-16.3,4.9-19.1-3.4c-2.6-7.3-10.8-1.7-9.2,4.2
	c3.5,8.4,8.1,17.7,1.9,26c-15.2,22.2-26,22.1-15.6-6.7c-8.2,7.8-22.5,22.6-32.5,9.2c-17.7,34.8-14.7-27.9-17-38.1
	c-0.2,0-0.5,0-0.7-0.1c-7.6,23.9-8.6,49.8-17.3,73.2c-15.8,15.6-9.8-64.8-13.2-71.3c-3.6,10.8-4.8,22.4-7.2,33.5
	c-2,4.6-2.9,45.2-11.5,34.9c-5.8-21.5-1.2-44.4-0.2-66.3c0.1-1.2-0.1-3.1,1.9-2.9c3.1,21.4-3.7,44.9,0.1,66.8c0.4,0,0.8,0,1.2,0.1
	c4.1-17.5,5.6-35.4,8.7-53c0.9-8.6,9.3-30.5,11.2-8.6c1.1,21.9-1.7,45.4,6,66.1c5-4.8,15.5-93,23.7-75.5c2.8,16.5,1.4,32.8,5.4,49.1
	c4.4-3.8,6.4-15.9,12.9-7.9c5.4,4.7,14.2,0.5,18.6-4c3.8-3.6,7-8.7,12.9-8.6c1.8,7.8-4.7,14.5-4.6,22.4c0.3,0.2,0.6,0.4,0.8,0.5
	c6.8-3.4,11.4-10,15-16.5c3.9-6.9-0.5-13.7-3-20.2c-3.6-7.3,6.6-18.1,12.7-10.8c1.9,4.4,14.8,20.2,15,7.5c-2.3-7.4-14.6-23.6,0.6-24
	c13.7,2.8,17.2,22.5,9.1,32.4c-9.6,12.8-27.2,23.1-26,41.1c0.3,0.1,0.6,0.3,0.9,0.4c8.3-4.7,13.2-13.7,21.1-18.8
	c11.8-5.8-1.5,22.6-0.9,27.5c-1.6,6.6,2.6,8.4,6.6,2.4c15.5-23.5,11-52.5,12.5-79c0.2-8.7,15.5-17.7,16.2-4.4
	c0.6,19.4-3.1,38.8,0.6,58.2c4.6,15.5-3.2,24.6-8.9,38.4c-4,8.9-16.3,6.9-24.4,9.5c-11.7,0.9-21.3,1.2-22.1-13.2
	c-3.1-13-16.7-6.6-24-1.1c-9.9,5.2-12-9.2-17-14.4c-5.1-6.8-19.5,1.4-12.8,8.2c2.9,2.2,6.3,3.6,9.3,5.6c8.3,5.8-3.8,10.8-7.2,15.3
	c-2.8,2.7-6.6,12.5,0.8,10.4c13-3.7,26-21.6,38.9-8.3c5.4,5.2,11.4,10.1,19.5,9.1c5.3,0,11.1-0.8,16.1,1c5,2.3,5.6,8,1,11
	c-15.7,11.3-29.4-3.4-39.9,4.6c-11.8,13.3-25.3,10.6-15.8-8.3c-10.2-0.2-19.8,5-28.5,9.9c-13,9.9,10.8,18.8,19.4,17.9
	c17.8,0.6,33.4-10.5,51.3-10.3c10.9-0.8,19.4-5.6,24.3-15.8c2.3-6.3,14.8-27.4,19.3-12.7c0.1,13.1-1.1,26.3-1.3,39.4
	c1.1,21.2-15.4,21.9-30.4,13.3c-12.4-6.5-29.1-3.7-36.5,8.8c-3.5,7.1-15.8,25.1-20.8,9.8c-0.6-5.8-0.4-12.2-3.8-17.2
	c-6.6-15.7-53,13.4-33.3,19c16,0.3,35.1,7.5,24,26.5c-5.4,6.9-14,4.4-21.3,3.1c-11.7-0.1-5.4,17.2,12.2,14
	c27.5-2.7,19-26.2,39.8-35.3c14.7-5.2,22.6-25.8,40.5-20.3c17.1,8-15.4,24.8-21.6,30.4c-7.5,5.3-14.3,11.2-19.6,18.8
	c-13.4,22.4-38.7,11.8-41.5,23.5c3.3,15.9,27.6,5.4,34.8-2.6c14.3-15.7,34.6-23.8,48.2-40.1c3.6-5.1,14.8-9.7,13.9,0.4
	c-2.3,11.1-9,20.8-13.6,31.1c-6.1,11.9-15.9,18.7-28.9,21.4c-19.8,5.1-50,13.7-49,38.9c0.3,12.1,15.3,3.6,19.4-1.7
	c2.8-3.6,7.8-8.9,11.6-3.4c7.5,9.1-1.9,31.2,10.7,35.3c9.1,0.5,12.7-12.7,9.8-20.1c-2.6-8.6-7.6-18.9,1.3-25.6
	c7-7.5,23.8-11.5,26.7,1.9c6.2,20.4-32.9,53.5-12,68.2c6.2,5.4,24.1,2.8,19.5-7.8c-5.7-8.2-17-20.2-4.8-28.3
	c2.7-1.8,5.6-3.4,8.6-4.6c16-6.4,16.1-31.7,2.3-38.9c-10.3-3.4-21.8-25.9-5.3-27.9c3,0.2,6,1.1,8.9,2c11.1,3.2,6.8-14.7,5.2-20.5
	c-5-11.1-4.1-14.1,4.9-22.1c3.7-4.1-2.5-6.8-5.1-9.2c-6.7-6.1,2.2-11.1,8.2-11.5c4.2-0.6,9.1,2.7,13,2c7.7-4.3,13.9-12.7,23-15.1
	c31.8-7,38.1,35.4-0.3,46.9c0.7,5.4,4.7,11.4,2.8,17c-4.9-3.8-4.1-11.5-6.4-17c-0.6-2.2,0.7-2.9,2.4-3.6
	c33.6-8.2,30.1-45.1,4.4-40.6c-8.2,2.5-15.1,8.2-21.5,13.8c-4.3,4.3-10-0.3-15-0.1c-27.3,3.1,13.8,8.7-7.6,24.1
	c-7.7,5.6,7,19.3,1.1,35.3c-3.5,11-15.4-2.9-21.5,3.3c-4.5,6.5,2.2,14.7,7.5,18.5c17.9,8.4,20.1,34.9,2.8,45.2
	c-7.5,3.7-19.4,8.5-12.7,18.6c31.4,32.1-31.5,37.1-22.8,2.6c4.5-17,20.3-31.9,17.1-50.4c-3.7-11.7-20.3-3.2-24.4,4.6
	c-4.3,12.6,12.7,28-2.8,40.1c-5.8,4.4-13.1,2.5-15.6-4.3c-3.8-10,0.3-21.8-6.1-30.8c-33.4,34-40.2-4.8-17.6-21.5
	c11.4-7.7,23.8-12.8,37.1-15.9c12.1-1.6,22.3-8.8,28-19.7c2.2-4.4,24.7-44,6.3-29.6c-8.3,9.9-18.5,17.2-29.2,24.3
	c-14.2,9.2-24.2,25.8-42,28.5c-12.5,3.5-27.6-11-12.4-18.7c11.3-3.4,25.3-2.5,32.5-13.5c9.3-13.1,21.8-22.4,34.8-31.4
	c4.4-4,13.4-8.5,13.8-14.9c-5.5-6-16.4-2.1-21,3.4c-5.6,6.4-12.3,11.3-20,14.8c-20.5,9.3-10.5,39.2-50.9,34.9
	c-11.4-1.2-15.9-19.8-2.8-19.8c8,1.2,20,4,21.8-6.5c1.4-5.7-1.1-11.7-6.6-13.7c-5.2-1.7-10.8-2.4-16.2-3.2
	c-33.3-7.2,36.6-53.7,38.8-13.7c-0.4,21.2,9.6,8.1,15.1-2.1c27.8-42.4,69,28.2,67.1-29.6c-0.4-10.8,3.3-22.4,0-32.7
	c-15.8,10-11.2,32-39.1,33.3c-24.9,0.7-55.5,23.2-76.2-0.3c-9.4-13.4,23.7-22.9,32.8-23.6c8.3,0.7,0.4,9.4,1,13.9
	c1.1,7.1,9.2-0.3,11.7-2.9c11.2-12.3,26.5,2.9,40-5.4c1.8-0.8,4.4-1.5,4-4.1c-2.3-6.3-11.9-3-17.1-3.5c-9.6,1.2-16.5-4.9-22.9-11
	c-12.4-9.8-23.6,10-36.2,10.5c-10.7,0.3-6.2-13.6-0.6-17.7c7.3-6.2,11.6-6.8,0.5-12c-19.3-9,8.4-35.6,20.4-3.3
	c5.2,8.2,15.2-8.8,24.6-5c14.5,1.7,6.3,20.6,17.6,20.9c10.2-0.9,22.5,0.3,31.2-5.4c4.9-9.3,14.1-23,11.7-33.7
	c-5.7-21.1-1.4-42.6-2-64c0-1.2-0.9-3.2-1.9-3.5c-13.3,2.7-7.3,21.2-8.3,31c3.8,57.9-39.7,94.1-18.7,28.5
	C419.7,341.5,419.5,341.3,419.3,341.2z"/>
<path d="M524.6,563c8.9,23.6,32.7,41.4,58.1,32c20.2-7.3,41.9-22.5,63-9c35.9,24.2,51.7,15,87.8-1.2c22.2-11.4,46.4-8.3,69.6-2.3
	c0.6,0.1,1.1,1.3,1.6,2c-6.3,2.2-15-2.7-21.8-3.2c-32.5-7.7-59.6,16-90,22.2c-30.7,8.4-53.5-32.1-83.8-16
	c-29.6,16.2-61.3,21.6-81.4-11.3c-14.1-21.5-4.1-11.3,8.1-24.7c5.7-5.6,2.8-11.9-5.2-11c-9.5,0.1-17.7,3.5-24.9,9.6
	c-0.9,1.1-2.5,0.9-3.8,1.3c3.1-9.2,23.1-16.2,32.5-13.8C552.4,541.8,534.7,560.5,524.6,563z"/>
<path class="st1" d="M157.6,333.3c-28.9,1.1-44.4-36-65.4,4.2c-0.5,1.1-1,2.8-2.6,1.8c-1.3-5.8,7.5-14.9,11.7-18.8
	c17.9-15.7,34.6,10.5,53.6,9.7c6.6,1.4,2.5-20.9,27.4-21.1c23.3,1.2,17.3,38.5,0.7,23.8c-4.8,8.9-17.7,7.2-13.7-4
	c2.9-7.2,12.5-6.9,15.4,0c0.7,1.8,3.1,4,4.7,4.1c14.5-6.2-1.2-27.3-15.7-19.3c-25.3,10.8-7.8,51.4,16.9,42.7
	c13.7-4.8,14.2-15.4,22.9-21.3c0,7.2-10,16.9-15.8,21.2C176.7,368.9,158.6,351.8,157.6,333.3z M171.4,333.5c2.9,4.8,8.2,0.6,9.1-3.6
	C179.5,323.5,171.1,327.4,171.4,333.5z"/>
<path d="M547.3,531.8c-5.6-1.6-12.6,0.4-17.1-3.5c4.7-2.8,10.7,0,15.9,0c10.3-0.5-2.2,20.7,10.4,36.9c15.7,18.6,33.1-9.4,36.1-24.4
	c1.7-6.1,2.1-12.3-0.2-18.5c-0.2-0.7,0.4-1.7,0.7-2.5c11.6,9.6-2,38.8-11,47.6c-7.1,8.2-18.7,10-26.5,1.7
	C545.4,559.2,547.4,544.7,547.3,531.8z"/>
<path d="M554.3,445.6c7.3-1.2,14.1-3.1,21-3.4c19.2-2.2,34.1,22.3,20.8,37.1c-5.4,5.6-27.9,16.8-34,10.6c0.8-0.5,1.5-1.3,2.3-1.3
	c9.9-0.3,18.7-3.8,26.6-9.3c8.1-5.7,9.2-16.3,2.9-25.1c-8.9-12.9-24.6-9.1-37.1-5c-3.8,1.1-4.7,0.7-5.6-3.1
	c-1.4-6.4-2.8-12.8-4-19.2C550.5,417.3,553.7,444,554.3,445.6z"/>
<path d="M487.7,352.5c-4.7-9.9-9.2-19.5-13.8-29.1c-1.2-1.5-0.7-3.1-0.4-4.8c0.8,0.5,2,0.8,2.4,1.6c4.7,9.9,9.4,19.8,14,29.8
	c1.8,3.9,1,5.1-3.1,6.2c-12,0.9-25,24.1-7.5,24.4c7,0,13.3-2.5,19.3-6c4.3-1.8,7.8-7,12.7-6.1c-0.3,0.8-0.4,2-1,2.5
	c-10.1,7.3-21.7,14.2-34.7,12.5c-5.1-0.5-7.6-3.7-7.8-8.8C467.3,363.3,476.6,354.6,487.7,352.5z"/>
<path d="M472.8,588c0.8,3.7-2.3,11.1,3,11.7c12.2,1.5,27.5,6.5,30.7,19.9c4,21.5-25.9,29.7-39.6,19.5c-0.7-0.4-0.9-1.9-1.3-2.9
	c11.3,2.5,21.8,8.7,32.9-2c7.2-7.1,6.9-16.3-0.8-22.8c-16.3-13.5-29.2-2.3-28.2-17.2c0.4-5.7-1.7-12.4,1.3-17.5
	c3.1,2.9,1.4,7.4,1.8,11.2C472.7,588,472.7,588,472.8,588z"/>
<path d="M523.3,383.3c-4.6,3-11.3,12.7-16.2,12.2c-0.2-3.2,3.1-4.5,5-6.6c17.9-18.1,10.6-2.1,33.6,1.6c17,2.8,23.4-11.3,21-22.5
	c-2.1-9.7-7.7-17.1-16-22.5c-0.6-0.4-0.9-1.5-1.3-2.2c12.1-1.9,22.9,23.1,20.7,33.4C566.7,400.2,537,396.5,523.3,383.3z"/>
<path class="st1" d="M231.9,319.5c3.3-0.1,6.4-1.2,9,1.4c-2.6,2.1-5.7,1.6-8.9,1.9c0,1.9,0,3.5,0,5.6c2.6-0.3,5-1.2,7.2,0.6
	c-0.7,0.7-1.3,1.7-2,1.9c-9.3,0.7-3.1,7.2-7.2,12.4c-2.4-3.4-1.2-7.2-1.4-11.2c-12.1-0.5-3.4,6.7-8.4,12.2c-2.7-3.1-1-7.2-1.4-11.2
	c-3.1,0.2-5.2,1.2-7.6-0.8c1.8-2.6,4.5-2.1,7.4-2.5c0-1.7,0-3.3,0-5.2c-2.4,0.3-4.4,0.8-6.4-0.7c1.1-2.7,4.9-1.8,6.3-3.1
	c1.6-2.9-0.8-7.5,2-10.1c2.8,2.7,1.3,6.3,1.6,10c2.2-0.3,4.1-0.5,6.2-0.8c0.3-4.4-0.8-8.9,0.9-12.9
	C233.1,309.8,231.1,315.1,231.9,319.5z M228.4,323.4c-6.5-0.1-7.4,0.7-6.3,6c2-0.2,4.1-0.5,6.3-0.7
	C228.4,326.8,228.4,325.2,228.4,323.4z"/>
<path d="M523.2,440.1c2.5,4.9,12.7,14,11.2,18.5c-4.8-0.9-10.2-12.8-13.9-16.9c-2.2-6.4,12.6-12.7,9.2-24.1
	c-1.4-7.2-6.7-10.8-13.9-9.5c-11.3,1.7-18.2,10.8-25.1,18.8c-2.5,2.6-5.2,0.8-2.6-1.9C511,389,552.8,406.2,523.2,440.1z"/>
<path d="M485,319.2c1.8,3.7,6.4,7.6,5.5,11.6c-2.5,2.2-6.1-7.4-7.7-9.2c-1.5-2.8-1-4,1.5-6c6.1-5.1,14.9-9.6,14.3-18.8
	c-2.1-21.7-31.3-13.1-30.7,6.5c-0.1,2.4,0.9,5-1,7c-0.6-0.5-1.8-1-1.8-1.5c-2.3-13.4,6.5-28.3,20.4-28c12.3-0.1,20.1,12.5,14.8,23.7
	C497,311.3,491,315.1,485,319.2z"/>
<path d="M568,519.1c1.4-16.8-3.6-9.5-15.7-12.6c-10-2.2-14.3-9.8-11.5-19.7c3.6-14.3,17.1-20.4,30-24.3c3-0.7,4.9,1.9,1.2,3
	c-13.1,2.4-27.4,11.5-28.6,25.9c-0.4,5.5,2.1,9.7,7.5,11.2c6.8,3.2,21.4-2.2,20.4,9.1c-0.8,5.8,1.3,13-2.5,17.7
	c-2.4-3-0.9-6.8-1-10.4C567.9,519.1,567.9,519.1,568,519.1z"/>
<path d="M487.2,550.5c-1.5-7.1-13-27.7-9.6-32.7c0.6,0.5,1.6,0.8,1.8,1.5c3.5,9.6,6.9,19.3,10.4,28.9c1,2.6,1,4.6-1.6,6.3
	c-14.6,20.1,1,44.2,22.9,12.6c0.3,0.1,0.7,0.1,1,0.2c0.6,6.5-7.8,12.8-12.8,16.2C478,594.8,474,560.8,487.2,550.5z"/>
<path d="M566.1,401.2c-10,1.5-20.6,3-31.3,4.6c-1.5,0.8-2.6-0.4-3.8-1c6-5.3,40.7-7.8,48.7-4.6c12.9,4.9,1.7,18.3-7.4,19.9
	c-7.3,1.6-2.2,4.2-5.5,9c-0.6-0.9-1.7-1.8-1.9-2.7c-0.7-6.3,0-7,5.9-9.4c6-1.6,18.1-10.4,6.9-14.1
	C574.3,402,570.6,401.8,566.1,401.2z"/>
<path d="M530.2,360.3c1.8,2.4,14.6,10.8,11.8,12.8c-1.9,2.2-3.1-0.7-4.3-1.7c-20.8-16-4.6-10-2.9-27.1c0-8.9-9.9-5.3-14.9-3.2
	c-7,3-13.1,7.4-18.3,13c-0.6,0.6-1.8,0.7-2.7,1c0.3-8.8,20.6-18.6,28.9-19.7C543.4,333.5,538.6,354.1,530.2,360.3z"/>
<path d="M530.5,322c-34,32.8-42.9-4.3-21.2-19.4c0.7,4.1-3.3,6.7-5,10.1c-4.6,6.1-5.8,22.1,5.8,18.9c8.8-0.6,19.2-17.4,22.5-11.8
	c2.4,3.7,7.3,6.5,7,11.3C535.3,329.9,533.4,324.9,530.5,322z"/>
<path d="M524.2,598.6c-2.1-2.6-4.9-3.7-4.5-7.1c3.4-0.3,5,3.1,6.9,5.3c3.6,5.7-9.3,6.7-11.8,10.8c-3.5,3.6-2.8,8.1,1.4,10.9
	c10,5.8,21.6-1,30.6-5.8c1.7-1.8,5.5-1,3.4,1.6C518.2,637.4,491.2,611.2,524.2,598.6z"/>
<path d="M483.6,442.9c-19.2-0.5-11.8-24.6,0.1-30.7c4.8-3.3-2.8-8,0.2-12c3.7,1,3.4,5.8,4.8,8.8c0.3,8.3-16.1,10.4-13.4,24.3
	c2,12.1,18,4.5,23.9-0.5c0.9-1.2,2.4-1.2,3.8-1.5C501.6,438.8,489.5,442.2,483.6,442.9z"/>
<path d="M525.9,493.2c1-8-2.3-20.8,1.4-27.1c3.8,5.8,1.2,18.1,2.3,25.4c0.1,3.9-0.5,4.6-4.3,5.2c-13.5,3-15.5,18.4,2.2,15.4
	c3.4-0.8,4.1,2,0.7,3.1C506.7,520.7,506.7,495.4,525.9,493.2z"/>
<path class="st1" d="M265.1,313.7c-0.6,8.5-1.3,18-2.1,27.5c-0.1,0.9-1.1,1.7-1.7,2.5c-0.4-0.9-1.3-1.9-1.2-2.8
	c0.6-13.2,1.2-26.5,2-39.7c0.1-0.9,1.1-1.7,1.7-2.5C266.5,303.1,264.5,307.9,265.1,313.7z"/>
<path class="st1" d="M249.2,317.7c0.9-3-0.8-20.1,2.7-19.1c0.6,0.1,1.2,1.8,1.2,2.8c-0.4,10-0.9,20.1-1.4,30.1
	c0.1,1.8-0.2,3.3-1.7,4.3C246.5,331.8,249.8,323,249.2,317.7C249.3,317.7,249.3,317.7,249.2,317.7z"/>
<path class="st2" d="M497.5,529.8c-2,1.9-3,2.7-5,0.2c1.6-2,2.5-3.1,4.9-1.2C497.5,529.1,497.5,529.5,497.5,529.8z"/>
<path d="M499,399.9c1.2,1.1,2,1.8,2.8,2.6c-2,2.5-3,1.6-5-0.2C497.4,401.6,497.9,401,499,399.9z"/>
<path d="M516.8,522.9c1.4,2.1,4.4,3.7,1.6,5.3C516.6,526.3,514,525.8,516.8,522.9z"/>
<path class="st1" d="M250.1,342.9c-1.5-2.3-2.6-3.1-0.3-4.9C251.8,340,252.8,340.3,250.1,342.9z"/>
<path d="M546.6,416.5c-1.2,0.9-1.9,1.5-2.6,2c-1.8-1.8-1.7-2.6,0.3-4.1C544.9,414.9,545.5,415.5,546.6,416.5z"/>
<path class="st1" d="M261,346c0.8,1.1,1.2,1.8,1.7,2.4c-1.4,1.1-3,2.4-3.9,0.2C259.2,347.8,260,347.2,261,346z"/>
<path d="M481.7,390.6c-2.3,1.6-3,2.4-4.6,0.1C478.8,388.7,479.3,388.5,481.7,390.6z"/>
<path d="M471,563.1c2,2,2.2,3.2-0.1,4.3C468,566.7,469.5,565.1,471,563.1z"/>
<path d="M477.4,508.1c1.3,1.9,2.5,3.4,0.2,4.3C475.7,510.9,474.9,510.3,477.4,508.1z"/>
<path d="M495.8,338.9c1.4,2.3,2.3,3.8-0.4,4.6C493,342.4,494.1,341,495.8,338.9z"/>
<path d="M469.8,311.4c2.1,2.3,2.2,2.8,0.3,4.7C467.9,314.6,468.4,314,469.8,311.4z"/>
<path d="M572,542.2c-1.8,1.7-3.3,2.4-4.1,0.1C568.6,539.7,570.1,540.6,572,542.2z"/>
<path d="M569.2,435.7c-1.9,1.6-2.5,2.3-4.1,0.3C566.6,434.3,567,433.6,569.2,435.7z"/>
<path d="M546.5,335.6c-1.9,1.5-3.4,1.9-3.9-0.4C543.5,333,544.8,333.7,546.5,335.6z"/>
<path d="M517.6,585.2c-2.2,2.5-2.6,1.3-4.2-0.4C515,582.6,515.7,583.8,517.6,585.2z"/>
<path d="M548.9,380.1c-2.1-1.8-1.9-2.3-0.1-3.8C550.5,377.7,550.4,378.2,548.9,380.1z"/>
<path d="M526.9,463.2c-2-1.8-1.9-2.2-0.1-3.7C528.7,460.8,528.5,461.4,526.9,463.2z"/>
<path d="M537.9,463.2c1.7,2,1.9,2.4,0,3.8C536.1,465.6,536.2,465.1,537.9,463.2z"/>
</svg>
